PathFileType	4	(X/Y/Z)	56_1_tpose_p0_0-287_filt_butterworth.trc
DataRate	CameraRate	NumFrames	NumMarkers	Units	OrigDataRate	OrigDataStartFrame	OrigNumFrames
60.0	60.0	6	27	m	60.0	251	287
Frame#	Time	RHip			RKnee			RAnkle			RBigToe			RSmallToe			RHeel			LHip			LKnee			LAnkle			LBigToe			LSmallToe			LHeel			Neck			Head			Nose			RShoulder			RElbow			RWrist			RThumb			RIndex			RPinky			LShoulder			LElbow			LWrist			LThumb			LIndex			LPinky			
		X1	Y1	Z1	X2	Y2	Z2	X3	Y3	Z3	X4	Y4	Z4	X5	Y5	Z5	X6	Y6	Z6	X7	Y7	Z7	X8	Y8	Z8	X9	Y9	Z9	X10	Y10	Z10	X11	Y11	Z11	X12	Y12	Z12	X13	Y13	Z13	X14	Y14	Z14	X15	Y15	Z15	X16	Y16	Z16	X17	Y17	Z17	X18	Y18	Z18	X19	Y19	Z19	X20	Y20	Z20	X21	Y21	Z21	X22	Y22	Z22	X23	Y23	Z23	X24	Y24	Z24	X25	Y25	Z25	X26	Y26	Z26	X27	Y27	Z27	
251	4.183333333333334	0.436863320380458	0.6564485678057557	0.2533717839042476	0.4664742696969641	0.8451747510519934	0.6621269803211106	0.49673380190748023	1.1031815597962613	1.0877144357539668	0.4062695450117476	0.8756418465414444	1.1395125842136118	0.4764212213553224	0.9123883966410113	1.1546025682457337	0.5109477422653222	1.171926947307881	1.125890328883008	0.2610552513879664	0.7601282959480038	0.23184534184136601	0.3021147061394041	0.9367169868184755	0.6457210396604369	0.32709364074908076	1.1061648842839733	1.042129640713636	0.24272616444200978	0.9059572119001845	1.122471458925291	0.2267285021128592	0.998667733629518	1.1297121642080068	0.36307125409566066	1.1885722001489545	1.1099812775863787	0.33803414630581413	0.5093409539157198	-0.25415354958828673	0.31429947662543845	0.36601880559052774	-0.4456613639270301	0.27923600993640796	0.36247705863929414	-0.31419605543593965	0.4721802193076846	0.4715757150178783	-0.19107882432594334	0.7488316005251512	0.43659000333318176	-0.21465767074134867	0.9669905421530635	0.38524241128840897	-0.2354443093230423	1.1192415372008562	0.39805697247346195	-0.21076052401109788	1.126114860799117	0.38955372658989723	-0.20241771752304422	1.1183760605846547	0.409572747483936	-0.19728569845780886	0.19304920309441542	0.5820479131511558	-0.2295084560960418	-0.027865061214110372	0.7096271680645942	-0.28049384958308615	-0.2357540965884173	0.853850896981128	-0.3715156923500088	-0.33773839104707115	0.8582883502259872	-0.3565347433023408	-0.3526034159700397	0.8945374912116739	-0.3897108402765458	-0.33395251700254447	0.919725644066262	-0.39568775614002016
252	4.2	0.43807608856052915	0.6527662983362903	0.25492638151378383	0.46862734029579234	0.8464428872861869	0.6642664812385649	0.49484025156234634	1.1008872745071399	1.088080118232242	0.40260468976251756	0.8751386994330442	1.140002753928015	0.4761985702906525	0.9121441701136499	1.1545558981997408	0.5108692098577104	1.1719159942629256	1.125875022282896	0.2625273175715283	0.7600492821137591	0.23189462714938563	0.3020837140986339	0.9366529676795369	0.6468890185036922	0.3270538013448912	1.1059836577074909	1.0432624299936333	0.24276604561729928	0.9041897965229365	1.1215330354403985	0.22839702844340812	0.9986040547564414	1.1297470016292206	0.3597821566769401	1.1797072281184504	1.1098355935676283	0.3374581882272505	0.5094001978868381	-0.2541440605535997	0.3142701845192341	0.36595200183908877	-0.4456302155422387	0.27921702821206035	0.3624633010555025	-0.31415993120872965	0.4721467765610554	0.4714578512011201	-0.19140666843859647	0.7487625759383	0.43630254203960983	-0.21501460185867186	0.9679993756880212	0.3860307617797749	-0.2355823122245264	1.124112884200282	0.40874809394033246	-0.21436117343976935	1.1300873889708554	0.39858558030233543	-0.20453903580013483	1.1180732681888235	0.415003701844598	-0.20246935383693682	0.19377108646767274	0.5831563601350246	-0.22951570073915745	-0.02807087312931393	0.70649229911216	-0.2808872830758946	-0.2352767795015454	0.854761104899051	-0.3721240018369066	-0.33889348313384593	0.8618250263516242	-0.3624918637826247	-0.3515239859952752	0.8976584380131343	-0.391731435674944	-0.33299140332922866	0.9158090277346576	-0.39647432567386814
253	4.216666666666667	0.43912362478363975	0.6518032300264243	0.2560489695328436	0.4702458786031018	0.8470509034113561	0.6652541792543376	0.49314649848121517	1.0954422619984503	1.0886558621249596	0.3986978324023205	0.8724307870617446	1.139909726999313	0.4759243713264591	0.9117831055584567	1.1544947589931378	0.5109779623736865	1.1721797549522803	1.1259639877396024	0.26362473035587614	0.7599659879273543	0.2319348543983436	0.3020604963967685	0.9366164760564412	0.648414054010286	0.3270086173521281	1.1057708309751664	1.0447639990008455	0.24288410524804704	0.9037942976850529	1.121138432540449	0.22965921798875627	0.9986595946987342	1.1299253298817566	0.3571727115330278	1.1731385308478535	1.1097517926143652	0.33629361852788275	0.5094496629050043	-0.25412429299336764	0.3136277870705111	0.36503402247522665	-0.4453428640798549	0.27920721589177594	0.3624548392578868	-0.3141220915320525	0.4721386609637658	0.4714146520280032	-0.19140310571491376	0.748719425063619	0.43616089183086365	-0.2150006789862577	0.9694880571961495	0.38621685596882976	-0.23537299819979818	1.1272972309440057	0.4133410171401479	-0.21553084562930577	1.1330429338650245	0.40281442937786394	-0.206255738274268	1.1181357807181334	0.42024524797464835	-0.20503220985292434	0.1937972787707122	0.5832011207410226	-0.22947306181388832	-0.028227100817302106	0.7025178734223587	-0.28107511208787633	-0.23551338523414256	0.8555019704084112	-0.37245021531884714	-0.3394731355720359	0.8718793935091662	-0.3703095616244812	-0.3515031370230728	0.904402363511568	-0.39459890396758496	-0.33105812870724677	0.907584094939289	-0.3965135539794383
254	4.233333333333333	0.4396239495676419	0.6537245991294168	0.25642941871261454	0.47076047644230934	0.8468526779471223	0.6651465442423639	0.491913564779875	1.0878809589589422	1.0885138936766316	0.39570491027832233	0.8664262659384531	1.138469327916435	0.4757026941766833	0.9114236519121495	1.1544278510549104	0.5111491114392461	1.1724860753606499	1.1260926995354945	0.2640336503225917	0.7599009569910017	0.23195037576955455	0.30204317964326555	0.9365764602102102	0.6495206373863451	0.3269725328291715	1.1056139275150563	1.0459753457627723	0.24283628909667695	0.9036916549394305	1.1210929733429582	0.2301509998030717	0.9987523958765865	1.130187816948728	0.3560746167880173	1.1705147584590305	1.109727530199354	0.33522450827152844	0.5094463968519595	-0.25410192335655424	0.3119796370527952	0.3627283158045659	-0.4446523454026651	0.27920713863532887	0.3624524635076971	-0.3140733317078276	0.47215352147087364	0.4714315909454648	-0.19132113416627922	0.7487241823921957	0.436136512284532	-0.2148959315381191	0.9713057496176446	0.38588637739774834	-0.23511445207440326	1.1283651006351025	0.4127418352865285	-0.2144095144921818	1.135119752319234	0.40438861184092084	-0.20705100309298757	1.1187571979034092	0.42427218932873206	-0.20465635937287963	0.1936396730450895	0.5829741971994098	-0.22946368408442494	-0.028291713256055166	0.6995391505502662	-0.2811504914924375	-0.23541636168911334	0.8563135528160899	-0.37250854843089465	-0.33834126117359953	0.8827905822753384	-0.3766728111664335	-0.35136118332646404	0.9140107627367243	-0.3980572500547463	-0.32955381486035473	0.9005535328204441	-0.3963355308912192
255	4.25	0.4397596124088873	0.6583440237728302	0.25629678798561567	0.47046044608425	0.846198154633091	0.6646732012855012	0.4910150601498305	1.0814540043219332	1.0870100432918564	0.3938557126437554	0.8586510212274785	1.1357978230996655	0.47559871316442137	0.9112021815135604	1.1543673618867571	0.5112835384336311	1.172714607519687	1.1262525925618494	0.26400826261212956	0.7598496188777971	0.23195171586781932	0.30202036198158433	0.9365071426814313	0.6498429278555974	0.3269526414869855	1.105550129680282	1.0465382391113223	0.24257872369931852	0.9032529834140823	1.1211108226103406	0.2301462162226967	0.9987981482905208	1.13039534805879	0.3561030741624206	1.1707621409255613	1.1097317796060138	0.3352363379055928	0.5093991680948391	-0.25408758180497537	0.3097413365712774	0.3596074476285773	-0.4437490595811649	0.2792187263079207	0.3624587750186602	-0.31401678626326435	0.47217462658270176	0.47146957784544313	-0.19127548389311327	0.74876716664822	0.4361987618544332	-0.21482882159351566	0.9727942384516581	0.38542992962906725	-0.23501337197271477	1.128214169572015	0.41052368297560893	-0.2123911589218407	1.136627373696984	0.40745835842670447	-0.2067310086246521	1.1200604465389632	0.427822075710102	-0.20289056783384857	0.19354371160238437	0.5828452524122866	-0.22948647988050905	-0.028276372407428006	0.6984040145129231	-0.28117569804325915	-0.23443054077415582	0.8573722333667282	-0.37271572273660647	-0.3357629912964622	0.8865328317203689	-0.3790847724668697	-0.3498902939057016	0.9207729060047646	-0.400478039380162	-0.32865511049086205	0.8976732755428427	-0.3963001193410798
256	4.266666666666667	0.4398037034452209	0.6641174195855242	0.2560192736722843	0.4699142465829287	0.8453696451640238	0.6639763449673336	0.49045974383573226	1.0787407596311607	1.085037011658633	0.39323473337037435	0.8530904300990909	1.1332620639082935	0.4756154981630418	0.911198023802647	1.1543354069932203	0.511318976796064	1.1728073920304536	1.1264404902573477	0.26388117551008056	0.7598082808346456	0.2319607599930711	0.3019916668309024	0.936432854122649	0.6496918317903347	0.32694897616320123	1.1055578033443703	1.046504169044055	0.24236162200172548	0.9028138370823949	1.1210760936818924	0.23004667122460087	0.9988087976592483	1.1304804938324153	0.3564867826405415	1.1734151116443283	1.1097150690802673	0.3363234959666183	0.5093546545872971	-0.25408363647655113	0.3079546436473133	0.35710115897557104	-0.44305243331572947	0.27924113219531	0.3624791660775333	-0.3139685471654509	0.47218930618890087	0.4714998898208148	-0.19127638349158735	0.7488213928051951	0.43632009755374446	-0.21481239037162866	0.9736694266931532	0.3855739827749913	-0.23496624296451585	1.1278854452348042	0.40926433080891594	-0.21068876240420756	1.137349393252175	0.41220585675489824	-0.2055281443051838	1.1215587340593232	0.4313518296640975	-0.20097589155987464	0.19353896309282534	0.582847850020177	-0.22951570406923977	-0.02824589271157526	0.6984061911308317	-0.2811818039982335	-0.23288528819040866	0.8578192746235811	-0.37354529517020274	-0.3329204374094402	0.881404328897873	-0.3784110807925847	-0.3464775867614569	0.9184759482079361	-0.40030088967546884	-0.32726612128166127	0.8967843478103625	-0.3964440492119088
